<svg xmlns="http://www.w3.org/2000/svg" width="348" height="101" viewBox="0 0 348 101"><title>D47C6390-3F0A-44CB-8573-B0A5C2685E9E</title><g fill="none" fill-rule="evenodd"><path d="M-18.504-19.504h377.305v139.007H-18.504z"/><g fill="#FFF"><path d="M22.679 71.903V21.27H.859v70.039h70.529V71.903h-48.71"/><path d="M39.805 66.61h21.243V30.24H39.805zM103.737 30.128l-7.633 31.776-7.74-31.776H65.862l19.754 61.18h20.876l19.75-61.18h-22.505M243.713 21.27v33.567c0 10.863-5.506 17.883-14.024 17.883-9.154 0-14.84-6.854-14.84-17.883V21.27h-21.82v33.567c0 22.862 14.733 38.218 36.66 38.218 21.444 0 35.85-15.356 35.85-38.218V21.27h-21.826M317.292 60.777c0 8.126-5.24 13.802-12.744 13.802-7.4 0-12.978-5.935-12.978-13.802 0-8.646 6.598-13.811 12.978-13.811 7.505 0 12.744 5.682 12.744 13.811zm-8.91-32.282c-6.56 0-12.199 1.669-16.812 4.974v-3.228h-21.242v70.277h21.242V88.086c4.613 3.3 10.256 4.969 16.812 4.969 16.993 0 29.807-13.874 29.807-32.278 0-18.403-12.814-32.282-29.807-32.282zM334.753 86.095v-1.182h5.236v1.182h-1.915v5.214h-1.406v-5.214h-1.915M342.7 84.913l1.495 4.399h.019l1.413-4.4h1.978v6.397h-1.316v-4.534h-.018l-1.566 4.534h-1.083l-1.566-4.488h-.018v4.488h-1.315v-6.396h1.978M166.149 52.328h-22.735c2.67-3.6 6.851-5.765 11.367-5.765 4.513 0 8.694 2.165 11.368 5.765zm-11.368-23.91c-17.86 0-32.394 14.545-32.394 32.426 0 17.877 14.533 32.422 32.394 32.422 10.694 0 20.688-5.34 26.736-14.282l.894-1.327-17.097-7.376-.632.636c-2.722 2.711-6.236 4.205-9.9 4.205-5.576 0-10.537-3.25-12.855-8.25h44.667l.17-1.12c.274-1.798.408-3.403.408-4.908 0-17.881-14.53-32.426-32.39-32.426zM61.049 10.636c0 5.873-4.756 10.634-10.623 10.634-5.866 0-10.624-4.761-10.624-10.634S44.56.002 50.426.002c5.867 0 10.623 4.76 10.623 10.634"/></g></g></svg>