<svg xmlns="http://www.w3.org/2000/svg" xmlns:xlink="http://www.w3.org/1999/xlink" version="1.1" id="Layer_1" x="0px" y="0px" width="1644px" height="464px" viewBox="260.5 452.5 1644 464" enable-background="new 260.5 452.5 1644 464" xml:space="preserve">
<path fill="#FFFFFF" d="M1308.963,586.646c2.484,2.364,5.379,4.188,8.693,5.479c3.311,1.291,6.814,1.936,10.518,1.936  c3.75,0,7.293-0.657,10.629-1.972c3.336-1.315,6.258-3.19,8.766-5.625c2.506-2.435,4.492-5.308,5.953-8.619  s2.191-6.916,2.191-10.812c0-3.506-0.609-6.866-1.826-10.08c-1.215-3.215-2.971-6.051-5.258-8.511  c-2.289-2.459-5.078-4.419-8.365-5.88s-7-2.191-11.137-2.191c-3.799,0-7.414,0.621-10.85,1.862c-3.432,1.242-6.43,3.02-8.984,5.333  c-2.557,2.312-4.592,5.138-6.1,8.474c-1.51,3.338-2.266,7.1-2.266,11.285c0,3.944,0.719,7.561,2.156,10.848  C1304.518,581.459,1306.48,584.284,1308.963,586.646z M1311.045,558.157c0.707-3.091,1.803-5.854,3.287-8.291  c1.484-2.435,3.383-4.419,5.697-5.953s5.051-2.301,8.219-2.301c3.117,0,5.818,0.767,8.107,2.301s4.201,3.532,5.734,5.989  c1.533,2.46,2.676,5.199,3.434,8.218c0.752,3.021,1.133,6.017,1.133,8.985c0,3.068-0.381,6.136-1.133,9.204  c-0.758,3.067-1.889,5.831-3.398,8.291c-1.51,2.459-3.396,4.468-5.662,6.026c-2.262,1.56-4.93,2.337-7.996,2.337  c-3.07,0-5.76-0.706-8.074-2.118c-2.312-1.412-4.236-3.287-5.77-5.625c-1.535-2.337-2.691-5.04-3.471-8.107  c-0.779-3.068-1.168-6.258-1.168-9.569C1309.984,564.378,1310.338,561.249,1311.045,558.157z M902.296,737.194  c-1.623-0.203-3.125-0.447-4.504-0.73c-1.382-0.284-2.557-0.627-3.531-1.035c-0.974-0.406-1.625-0.81-1.947-1.218  c-0.73-1.136-1.157-2.879-1.279-5.234c-0.121-2.354-0.225-4.827-0.304-7.427c0-2.758-0.021-5.256-0.062-7.487  c-0.042-2.232-0.061-4.401-0.061-6.514v-22.157c0-2.436,0.019-4.787,0.061-7.062c0.041-2.271,0.082-4.584,0.122-6.939  c0.041-2.354,0.102-4.949,0.183-7.792c0.081-2.191,0.589-3.957,1.521-5.296c0.932-1.339,2.05-2.374,3.349-3.104  c1.297-0.73,2.679-1.258,4.14-1.583c1.461-0.322,2.717-0.565,3.773-0.73v-1.217H864.92v1.217c2.11,0.244,4.119,0.73,6.026,1.461  c1.905,0.73,3.428,1.786,4.565,3.166c0.487,0.568,0.853,1.339,1.096,2.313c0.244,0.974,0.427,2.09,0.548,3.348  c0.122,1.26,0.183,2.617,0.183,4.078v34.941c0,2.435-0.021,4.809-0.061,7.122c-0.043,2.312-0.081,4.443-0.122,6.392  c-0.042,1.947-0.061,3.49-0.061,4.626c0,1.299-0.061,2.617-0.183,3.957c-0.122,1.339-0.264,2.617-0.427,3.835  c-0.164,1.217-0.385,2.295-0.669,3.227c-0.286,0.933-0.631,1.643-1.035,2.13c-1.138,1.299-2.698,2.313-4.688,3.044  c-1.988,0.73-3.997,1.26-6.026,1.583v1.217h78.161l4.505-25.079l-1.218-0.365c-0.974,2.435-1.991,4.771-3.044,7  c-1.057,2.234-2.355,4.304-3.896,6.209c-1.542,1.907-3.389,3.592-5.54,5.053c-2.15,1.461-4.851,2.638-8.096,3.53  c-1.382,0.406-2.962,0.73-4.748,0.975c-1.785,0.243-3.53,0.426-5.235,0.548c-1.704,0.121-3.269,0.202-4.687,0.243  c-1.421,0.043-2.455,0.061-3.104,0.061C905.543,737.498,903.919,737.396,902.296,737.194z M783.753,586.646  c2.483,2.364,5.381,4.188,8.692,5.479c3.312,1.291,6.817,1.936,10.519,1.936c3.75,0,7.293-0.657,10.629-1.972  c3.336-1.315,6.256-3.19,8.766-5.625c2.508-2.435,4.492-5.308,5.953-8.619s2.191-6.916,2.191-10.812  c0-3.506-0.608-6.866-1.826-10.08c-1.218-3.215-2.971-6.051-5.26-8.511c-2.288-2.459-5.076-4.419-8.363-5.88  s-7.003-2.191-11.14-2.191c-3.799,0-7.415,0.621-10.848,1.862c-3.434,1.242-6.429,3.02-8.985,5.333  c-2.557,2.312-4.59,5.138-6.1,8.474c-1.509,3.338-2.264,7.1-2.264,11.285c0,3.944,0.718,7.561,2.154,10.848  S781.269,584.284,783.753,586.646z M785.835,558.157c0.705-3.091,1.802-5.854,3.287-8.291c1.484-2.435,3.384-4.419,5.697-5.953  s5.053-2.301,8.218-2.301c3.116,0,5.819,0.767,8.108,2.301c2.288,1.534,4.2,3.532,5.734,5.989c1.533,2.46,2.676,5.199,3.433,8.218  c0.755,3.021,1.132,6.017,1.132,8.985c0,3.068-0.377,6.136-1.132,9.204c-0.757,3.067-1.887,5.831-3.396,8.291  c-1.51,2.459-3.396,4.468-5.661,6.026c-2.265,1.56-4.931,2.337-7.999,2.337c-3.067,0-5.759-0.706-8.071-2.118  c-2.313-1.412-4.237-3.287-5.771-5.625c-1.533-2.337-2.69-5.04-3.469-8.107c-0.779-3.068-1.169-6.258-1.169-9.569  C784.776,564.378,785.128,561.249,785.835,558.157z M1280.551,592.964c-1.025-0.097-2.168-0.365-3.434-0.804  c-1.268-0.438-2.191-1.071-2.775-1.898c-0.391-0.536-0.609-1.461-0.658-2.776c-0.047-1.314-0.072-2.676-0.072-4.091v-24.471  c0-1.217,0.012-2.421,0.037-3.615c0.025-1.193,0.037-2.398,0.037-3.616c0.049-1.12,0.086-2.313,0.111-3.579  c0.025-1.267,0.256-2.313,0.693-3.142c0.635-1.168,1.535-1.945,2.703-2.337c1.17-0.39,2.266-0.657,3.287-0.804v-0.73h-21.844v0.73  c1.268,0.146,2.4,0.401,3.4,0.767c0.996,0.365,1.836,0.962,2.518,1.79c0.295,0.341,0.512,0.815,0.656,1.425  c0.146,0.608,0.256,1.29,0.33,2.045c0.072,0.755,0.109,1.57,0.109,2.447v21.11c0,1.461-0.012,2.886-0.037,4.273  s-0.049,2.666-0.072,3.835c-0.027,1.169-0.037,2.094-0.037,2.775c0,0.779-0.014,1.571-0.039,2.374  c-0.025,0.804-0.072,1.571-0.146,2.302c-0.07,0.73-0.17,1.363-0.291,1.898c-0.123,0.536-0.305,0.95-0.551,1.242  c-0.729,0.83-1.619,1.461-2.664,1.899c-1.049,0.438-2.178,0.757-3.396,0.949v0.73h22.133v-0.73H1280.551z M935.582,587.011  c2.508,2.313,5.589,4.066,9.241,5.26c3.652,1.192,7.791,1.789,12.418,1.789c2.337,0,4.675-0.245,7.013-0.73  c2.337-0.484,4.468-1.083,6.391-1.789c1.924-0.706,3.554-1.398,4.895-2.082c1.339-0.682,2.18-1.169,2.521-1.461v-10.665  c0-1.12,0.024-2.24,0.073-3.36c0.046-1.12,0.243-1.945,0.584-2.483c0.438-0.682,1.143-1.181,2.118-1.497  c0.975-0.317,1.873-0.521,2.703-0.621v-0.73h-21.403v0.73c2.825,0.243,4.795,0.998,5.917,2.265c0.828,0.876,1.325,1.996,1.498,3.359  c0.17,1.364,0.255,2.897,0.255,4.603c0,1.706-0.097,3.36-0.292,4.967c-0.194,1.607-0.487,2.728-0.876,3.36  c-1.169,1.802-2.764,3.104-4.785,3.908c-2.021,0.804-4.2,1.205-6.537,1.205c-3.264,0-6.161-0.621-8.693-1.862  c-2.532-1.242-4.675-2.983-6.428-5.224c-1.753-2.239-3.093-4.931-4.018-8.071c-0.928-3.141-1.388-6.61-1.388-10.409  c0-3.458,0.486-6.757,1.46-9.897c0.975-3.142,2.362-5.917,4.164-8.328c1.802-2.41,3.993-4.334,6.574-5.771  c2.579-1.437,5.479-2.155,8.693-2.155c3.019,0,5.746,0.512,8.181,1.534s4.432,2.364,5.99,4.018c1.217,1.269,2.361,2.875,3.433,4.821  c1.069,1.948,1.873,4.018,2.411,6.209h0.876v-15.924h-0.657c-0.633,0.827-1.169,1.533-1.606,2.118  c-0.438,0.584-0.707,0.876-0.804,0.876c-0.098,0-0.561-0.255-1.388-0.767c-0.828-0.512-2.009-1.069-3.543-1.68  c-1.534-0.609-3.423-1.169-5.661-1.681c-2.24-0.511-4.821-0.767-7.743-0.767c-4.87,0-9.009,0.693-12.418,2.082  c-3.409,1.388-6.282,3.226-8.619,5.515c-1.656,1.607-3.032,3.312-4.128,5.113s-1.947,3.579-2.557,5.332  c-0.608,1.754-1.034,3.424-1.278,5.004c-0.245,1.583-0.365,2.983-0.365,4.2c0,4.14,0.67,7.877,2.009,11.213  C931.15,581.875,933.074,584.699,935.582,587.011z M1569.082,578.646l-0.73-0.219c-0.584,1.461-1.193,2.861-1.824,4.2  c-0.633,1.341-1.412,2.581-2.336,3.726c-0.926,1.145-2.033,2.154-3.324,3.031c-1.293,0.877-2.912,1.583-4.859,2.118  c-0.828,0.246-1.777,0.438-2.848,0.585c-1.07,0.146-2.119,0.255-3.141,0.328c-1.025,0.073-1.963,0.122-2.814,0.146  c-0.852,0.026-1.473,0.036-1.863,0.036c-0.973,0-1.947-0.061-2.92-0.183c-0.973-0.121-1.877-0.268-2.703-0.438  c-0.826-0.168-1.533-0.377-2.117-0.62c-0.584-0.244-0.975-0.487-1.17-0.73c-0.438-0.68-0.693-1.729-0.766-3.142  c-0.074-1.412-0.135-2.897-0.184-4.456c0-1.655-0.014-3.152-0.039-4.492c-0.025-1.339-0.035-2.64-0.035-3.908v-13.294  c0-1.461,0.01-2.873,0.035-4.237c0.025-1.361,0.047-2.749,0.074-4.163c0.023-1.412,0.061-2.971,0.109-4.676  c0.049-1.314,0.354-2.374,0.914-3.177c0.557-0.804,1.227-1.425,2.008-1.863c0.779-0.438,1.607-0.755,2.484-0.949  c0.877-0.193,1.631-0.339,2.264-0.438v-0.73h-23.303v0.73c1.268,0.146,2.473,0.438,3.617,0.877c1.143,0.438,2.057,1.071,2.74,1.898  c0.293,0.341,0.512,0.804,0.656,1.389c0.146,0.584,0.256,1.254,0.328,2.009c0.072,0.757,0.111,1.57,0.111,2.446v20.965  c0,1.461-0.014,2.886-0.039,4.273s-0.047,2.666-0.072,3.835c-0.023,1.169-0.037,2.094-0.037,2.775c0,0.779-0.037,1.571-0.109,2.374  c-0.072,0.804-0.16,1.571-0.256,2.302c-0.1,0.73-0.23,1.375-0.4,1.936c-0.174,0.56-0.381,0.986-0.623,1.278  c-0.682,0.779-1.619,1.388-2.812,1.826s-2.4,0.757-3.615,0.949v0.73h46.895L1569.082,578.646z M473.878,735.368  c-0.974-0.688-1.727-1.34-2.252-1.948c-0.527-0.608-0.834-0.992-0.913-1.156c-0.487-0.894-0.834-2.131-1.035-3.714  c-0.203-1.582-0.305-3.145-0.305-4.688c-0.083-4.786-0.121-9.331-0.121-13.635V686c0-3.652,0.04-7.427,0.121-11.322  c0.081-2.841,0.203-5.722,0.365-8.644c0.163-2.923,0.487-5.071,0.975-6.453c0.647-1.783,1.844-3.327,3.591-4.626  c1.743-1.297,4.279-1.986,7.609-2.07v-1.217h-25.932c-0.244,0.651-1.238,3.025-2.982,7.122c-1.747,4.099-3.978,9.234-6.696,15.4  c-2.719,6.171-5.783,13.069-9.192,20.697c-3.408,7.629-6.898,15.299-10.47,23.01l-29.097-66.229h-25.932v1.217  c0.974,0.165,2.15,0.427,3.53,0.792s2.679,0.955,3.896,1.765c1.218,0.812,2.272,1.93,3.166,3.349  c0.891,1.42,1.379,3.267,1.461,5.539c0.081,2.355,0.121,4.343,0.121,5.966v15.34c0,5.438-0.043,10.531-0.121,15.279  c-0.082,4.748-0.203,8.869-0.365,12.356c-0.084,4.14-0.365,7.652-0.853,10.531c-0.487,2.882-1.261,5.296-2.313,7.244  c-1.057,1.948-2.478,3.47-4.261,4.565c-1.786,1.096-4.099,1.93-6.939,2.496v1.217h31.775v-1.217  c-3.492-0.487-6.229-1.278-8.218-2.374s-3.47-2.598-4.443-4.505c-0.975-1.905-1.583-4.261-1.826-7.062  c-0.244-2.8-0.365-6.105-0.365-9.922v-15.584c0-4.462,0.02-8.704,0.061-12.722c0.04-4.018,0.079-8.074,0.121-12.175  c0.041-4.099,0.062-8.826,0.062-14.184c0.405,0.893,1.156,2.598,2.252,5.113c1.096,2.517,2.496,5.641,4.2,9.375  c1.705,3.733,3.609,7.994,5.723,12.783c2.109,4.788,4.383,9.922,6.817,15.4s4.931,11.183,7.487,17.105  c2.557,5.925,5.134,11.891,7.73,17.896h0.73c0.162-0.487,0.566-1.479,1.218-2.982c0.649-1.5,1.339-3.166,2.069-4.992  s1.461-3.609,2.191-5.356c0.73-1.745,1.299-3.023,1.705-3.835c2.678-6.004,5.131-11.505,7.365-16.497  c2.232-4.991,4.443-9.881,6.635-14.67s4.401-9.697,6.636-14.731c2.231-5.03,4.687-10.549,7.365-16.558v49.551  c0,4.87-0.083,9.983-0.243,15.34c-0.081,1.623-0.244,3.227-0.487,4.81c-0.243,1.582-0.608,2.903-1.096,3.956  c-0.812,1.704-2.396,3.208-4.748,4.505c-2.355,1.301-5.277,2.029-8.766,2.191v1.339h41.759v-1.217  c-1.948-0.079-3.652-0.384-5.113-0.913C476.068,736.666,474.852,736.058,473.878,735.368z M1464.188,592.964  c-0.635-0.097-1.303-0.207-2.008-0.328c-0.709-0.122-1.365-0.316-1.975-0.585c-0.607-0.266-1.107-0.608-1.494-1.022  c-0.391-0.414-0.586-0.938-0.586-1.57c0-1.071,0.512-2.922,1.535-5.552c0.682-1.702,1.363-3.396,2.045-5.077  c0.682-1.68,1.387-3.443,2.117-5.296h19.432c0.73,1.899,1.41,3.726,2.045,5.479c0.633,1.754,1.193,3.349,1.68,4.785  s0.865,2.654,1.133,3.652s0.402,1.717,0.402,2.154c0,0.683-0.232,1.242-0.695,1.681s-0.998,0.779-1.605,1.022  c-0.611,0.245-1.195,0.414-1.754,0.512c-0.561,0.097-0.912,0.146-1.057,0.146v0.73h21.33v-0.876  c-1.123-0.047-2.094-0.267-2.922-0.658c-0.828-0.389-1.523-0.84-2.08-1.351c-0.561-0.512-1.014-1.011-1.352-1.498  c-0.342-0.484-0.561-0.828-0.658-1.022c-0.584-1.267-1.107-2.398-1.57-3.396s-0.961-2.253-1.496-3.762  c-1.168-3.068-2.336-6.173-3.508-9.313c-1.168-3.142-2.373-6.393-3.615-9.752c-1.24-3.36-2.545-6.854-3.908-10.482  s-2.801-7.463-4.311-11.505h-0.584c-0.195,0.341-0.473,0.779-0.84,1.314c-0.365,0.536-0.814,1.096-1.352,1.681  c-0.535,0.584-1.156,1.144-1.863,1.68c-0.705,0.538-1.494,0.998-2.373,1.388l0.73,1.607c-1.17,2.727-2.41,5.661-3.727,8.802  c-1.314,3.142-2.643,6.258-3.98,9.351c-1.338,3.092-2.643,6.1-3.908,9.021c-1.268,2.922-2.41,5.526-3.434,7.815  c-1.121,2.483-2.07,4.358-2.848,5.625c-0.779,1.268-1.34,2.071-1.68,2.41c-0.145,0.195-0.67,0.561-1.568,1.096  c-0.902,0.536-1.986,0.877-3.254,1.022v0.804h15.559v-0.73H1464.188z M1467.729,564.001c1-2.459,1.912-4.663,2.742-6.611  c0.826-1.945,1.52-3.604,2.08-4.967s0.986-2.361,1.277-2.995c0.441,1.071,0.986,2.447,1.646,4.127  c0.658,1.681,1.389,3.533,2.191,5.552c0.803,2.021,1.631,4.127,2.484,6.318c0.852,2.192,1.691,4.384,2.52,6.575h-18.189  C1465.648,569.126,1466.729,566.46,1467.729,564.001z M1122.254,579.742l-0.803-0.219c-1.217,2.094-2.4,3.884-3.543,5.369  c-1.145,1.485-2.326,2.739-3.543,3.762c-1.217,1.022-2.483,1.814-3.798,2.374c-1.315,0.561-2.751,0.938-4.31,1.132  c-1.412,0.195-2.764,0.317-4.055,0.365c-1.29,0.049-2.35,0.073-3.178,0.073c-1.947,0-3.75-0.146-5.405-0.438  c-1.655-0.292-2.702-0.778-3.141-1.461c-0.438-0.682-0.719-1.716-0.841-3.104c-0.121-1.388-0.206-2.86-0.255-4.419  c0-0.487-0.013-1.084-0.036-1.79c-0.025-0.706-0.037-1.448-0.037-2.228v-8.766c0-1.315,0.049-2.313,0.146-2.995h3.359  c0.487,0,0.975,0.013,1.461,0.037c0.487,0.023,1.096,0.061,1.826,0.109c1.461,0.097,2.74,0.365,3.836,0.803  c1.096,0.438,2.033,0.999,2.812,1.681c0.876,0.828,1.716,2.071,2.52,3.726c0.804,1.655,1.398,3.263,1.789,4.821h0.877v-23.011  h-0.877c-0.291,1.364-0.62,2.594-0.985,3.689s-0.853,2.058-1.461,2.885c-0.608,0.828-1.4,1.534-2.374,2.119  c-0.975,0.584-2.191,1.047-3.652,1.388c-0.633,0.146-1.425,0.256-2.374,0.329c-0.95,0.072-1.899,0.134-2.849,0.182  c-0.95,0.049-1.79,0.073-2.521,0.073h-1.461v-0.804c0-0.438-0.012-1.059-0.036-1.862s-0.037-1.838-0.037-3.104v-4.675  c0-3.214,0.037-6.039,0.109-8.474c0.074-2.435,0.158-4.042,0.256-4.821c0.487-0.098,1.278-0.183,2.374-0.256  c1.096-0.072,2.155-0.109,3.178-0.109c3.214,0,5.941,0.146,8.181,0.438c2.24,0.292,3.772,0.633,4.603,1.022  c3.458,1.704,7.159,5.016,11.103,9.935l0.73-0.365l-4.967-12.053h-40.322v0.73c1.315,0.194,2.387,0.401,3.215,0.621  c0.827,0.219,1.606,0.718,2.337,1.497c0.292,0.292,0.521,0.768,0.694,1.425c0.17,0.657,0.292,1.399,0.365,2.228  c0.072,0.828,0.121,1.704,0.146,2.63c0.023,0.925,0.036,1.826,0.036,2.703v18.48c0,1.461-0.013,2.886-0.036,4.273  c-0.025,1.388-0.049,2.666-0.074,3.835s-0.036,2.094-0.036,2.775c0,0.779-0.026,1.571-0.073,2.374  c-0.049,0.804-0.134,1.571-0.256,2.302c-0.121,0.73-0.255,1.375-0.401,1.936c-0.146,0.56-0.341,0.986-0.584,1.278  c-0.683,0.779-1.546,1.388-2.594,1.826c-1.047,0.438-2.179,0.757-3.396,0.949v0.73h44.705L1122.254,579.742z M867.611,592.964  c-1.996-0.243-3.566-0.645-4.711-1.205c-1.145-0.558-1.986-1.398-2.521-2.521c-0.486-0.974-0.791-2.459-0.913-4.455  c-0.121-1.997-0.183-4.237-0.183-6.721v-30.826c3.312,3.701,6.452,7.28,9.423,10.738c2.971,3.46,6.002,7,9.095,10.628  c3.093,3.631,6.343,7.441,9.752,11.433c3.409,3.993,7.183,8.376,11.322,13.148c0.485,0.486,0.925,0.73,1.315,0.73  c0.243,0,0.424-0.062,0.547-0.183c0.122-0.122,0.184-0.28,0.184-0.475v-4.749c0-1.753-0.013-3.516-0.037-5.296  c-0.024-1.777-0.036-3.516-0.036-5.223v-4.675c0-3.263,0.036-6.318,0.109-9.167c0.073-2.85,0.158-5.32,0.256-7.415  c0.097-2.24,0.194-4.346,0.292-6.318s0.316-3.323,0.657-4.054c0.585-1.413,1.425-2.458,2.521-3.142  c1.096-0.682,2.544-1.143,4.346-1.388v-0.73h-18.115v0.73c2.338,0.341,4.127,0.938,5.369,1.79c1.241,0.852,2.105,1.962,2.593,3.323  c0.39,1.022,0.608,2.423,0.657,4.2s0.073,3.641,0.073,5.588v24.836l-34.624-40.468h-14.829v0.73  c0.779,0.098,1.595,0.256,2.447,0.475c0.851,0.22,1.644,0.585,2.374,1.096c0.73,0.512,1.363,1.218,1.899,2.118  c0.535,0.901,0.876,2.058,1.022,3.47c0.049,1.415,0.073,2.605,0.073,3.58v8.911c0,3.263-0.024,6.319-0.073,9.168  s-0.122,5.32-0.219,7.414c-0.098,2.775-0.244,5.162-0.438,7.158c-0.195,1.997-0.633,3.507-1.315,4.529  c-0.682,1.071-1.606,1.839-2.775,2.301c-1.169,0.465-2.338,0.768-3.506,0.913v0.73h17.969V592.964z M1315.682,864.866  c-0.391-0.535-0.609-1.461-0.658-2.775c-0.047-1.315-0.072-2.677-0.072-4.091v-24.471c0-1.218,0.012-2.421,0.039-3.616  c0.023-1.193,0.035-2.398,0.035-3.615c0.049-1.12,0.086-2.313,0.111-3.58c0.025-1.266,0.256-2.312,0.695-3.141  c0.633-1.169,1.533-1.946,2.703-2.338c1.168-0.39,2.264-0.657,3.287-0.803v-0.731h-21.844v0.731c1.266,0.146,2.4,0.401,3.398,0.767  c0.996,0.365,1.836,0.962,2.518,1.79c0.295,0.341,0.512,0.815,0.658,1.424s0.256,1.291,0.328,2.046  c0.074,0.754,0.109,1.57,0.109,2.446v21.111c0,1.461-0.012,2.885-0.035,4.273c-0.027,1.388-0.049,2.666-0.074,3.834  c-0.025,1.169-0.037,2.095-0.037,2.776c0,0.779-0.014,1.57-0.037,2.374c-0.027,0.804-0.074,1.57-0.146,2.301  c-0.07,0.73-0.17,1.363-0.293,1.899s-0.305,0.949-0.549,1.242c-0.729,0.829-1.619,1.461-2.664,1.898  c-1.049,0.438-2.18,0.757-3.396,0.95v0.73h22.133v-0.73c-1.025-0.098-2.168-0.365-3.434-0.804S1316.266,865.694,1315.682,864.866z   M1389.969,823.047c-2.289-2.459-5.076-4.419-8.363-5.88c-3.287-1.462-7.002-2.192-11.139-2.192c-3.799,0-7.414,0.621-10.85,1.863  c-3.432,1.241-6.428,3.02-8.984,5.332c-2.557,2.313-4.592,5.138-6.1,8.474c-1.51,3.338-2.264,7.1-2.264,11.286  c0,3.944,0.717,7.561,2.154,10.848c1.434,3.287,3.396,6.111,5.879,8.474c2.482,2.363,5.379,4.188,8.691,5.479  c3.312,1.29,6.816,1.936,10.52,1.936c3.75,0,7.293-0.658,10.629-1.973c3.334-1.314,6.256-3.189,8.766-5.625  c2.506-2.435,4.492-5.308,5.953-8.619s2.191-6.915,2.191-10.811c0-3.507-0.611-6.867-1.826-10.081  C1394.01,828.343,1392.258,825.506,1389.969,823.047z M1386.865,850.914c-0.756,3.068-1.889,5.832-3.398,8.291  s-3.396,4.468-5.66,6.026c-2.264,1.561-4.932,2.338-7.996,2.338c-3.07,0-5.762-0.706-8.074-2.118  c-2.314-1.413-4.236-3.287-5.771-5.625c-1.533-2.338-2.689-5.04-3.469-8.108s-1.17-6.258-1.17-9.569  c0-3.165,0.354-6.294,1.061-9.387c0.705-3.09,1.801-5.854,3.287-8.291c1.482-2.435,3.381-4.419,5.697-5.953  c2.312-1.534,5.051-2.301,8.217-2.301c3.117,0,5.82,0.767,8.109,2.301s4.199,3.533,5.734,5.99c1.533,2.459,2.676,5.198,3.432,8.218  c0.754,3.021,1.133,6.017,1.133,8.984C1387.998,844.778,1387.619,847.847,1386.865,850.914z M1425.398,593.914  c0.244,0,0.426-0.062,0.551-0.183c0.121-0.122,0.182-0.28,0.182-0.476v-4.748c0-1.753-0.012-3.516-0.037-5.296  c-0.025-1.777-0.037-3.516-0.037-5.223v-4.675c0-3.263,0.037-6.318,0.109-9.167c0.072-2.85,0.158-5.32,0.256-7.415  c0.098-2.24,0.193-4.346,0.293-6.318c0.098-1.973,0.316-3.323,0.658-4.054c0.584-1.413,1.424-2.458,2.52-3.142  c1.094-0.682,2.543-1.143,4.348-1.388v-0.73h-18.117v0.73c2.336,0.341,4.125,0.938,5.369,1.79c1.242,0.852,2.107,1.962,2.594,3.323  c0.387,1.022,0.609,2.423,0.658,4.2c0.045,1.777,0.07,3.641,0.07,5.588v24.836l-34.623-40.468h-14.828v0.73  c0.777,0.098,1.594,0.256,2.447,0.475c0.85,0.22,1.643,0.585,2.373,1.096c0.729,0.512,1.363,1.218,1.9,2.118  c0.535,0.901,0.877,2.058,1.021,3.47c0.047,1.415,0.074,2.605,0.074,3.58v8.911c0,3.263-0.027,6.319-0.074,9.168  c-0.049,2.849-0.121,5.32-0.217,7.414c-0.1,2.775-0.244,5.162-0.439,7.158c-0.195,1.997-0.633,3.507-1.312,4.529  c-0.684,1.071-1.607,1.839-2.775,2.301c-1.17,0.465-2.338,0.768-3.508,0.913v0.73h17.969v-0.73c-1.998-0.243-3.57-0.645-4.713-1.205  c-1.143-0.558-1.984-1.398-2.518-2.521c-0.486-0.974-0.793-2.459-0.912-4.455c-0.125-1.997-0.184-4.237-0.184-6.721v-30.826  c3.311,3.701,6.453,7.28,9.424,10.738c2.971,3.46,6.002,7,9.094,10.628c3.09,3.631,6.34,7.441,9.752,11.433  c3.408,3.993,7.184,8.376,11.322,13.148C1424.57,593.67,1425.01,593.914,1425.398,593.914z M1390.613,733.359  c-0.486-0.73-0.793-2.088-0.912-4.079c-0.125-1.986-0.184-4.157-0.184-6.513c0-2.923-0.021-5.601-0.061-8.036  c-0.043-2.435-0.061-4.786-0.061-7.061V667.86c0-1.297,0.041-2.575,0.123-3.836c0.08-1.258,0.203-2.394,0.365-3.408  s0.406-1.806,0.73-2.374c0.891-1.623,2.271-2.861,4.139-3.714c1.865-0.852,3.773-1.399,5.721-1.644v-1.217h-36.645v1.217  c1.865,0.084,3.73,0.386,5.6,0.913c1.867,0.53,3.531,1.888,4.992,4.079c0.648,1.057,1.035,2.416,1.156,4.078  c0.121,1.664,0.221,3.267,0.303,4.81c0.08,2.678,0.123,5.072,0.123,7.183v19.601h-48.09v-12.296c0-3.001,0.021-6.148,0.061-9.436  c0.041-3.287,0.102-6.349,0.184-9.191c0.078-1.867,0.486-3.409,1.217-4.626c0.73-1.218,1.623-2.172,2.68-2.861  c1.055-0.688,2.23-1.195,3.529-1.521c1.299-0.323,2.514-0.566,3.652-0.73v-1.218h-36.279v1.218c2.109,0.243,3.996,0.669,5.66,1.277  c1.662,0.609,3.062,1.605,4.201,2.983c0.484,0.568,0.852,1.359,1.096,2.374c0.24,1.015,0.426,2.152,0.547,3.409  c0.123,1.26,0.184,2.617,0.184,4.078v35.185c0,2.435-0.021,4.809-0.061,7.122c-0.041,2.312-0.082,4.443-0.123,6.392  c-0.041,1.947-0.061,3.49-0.061,4.626c0,1.299-0.043,2.66-0.121,4.079c-0.082,1.42-0.184,2.739-0.305,3.956  c-0.121,1.218-0.287,2.293-0.486,3.227c-0.203,0.934-0.467,1.604-0.793,2.009c-0.971,1.139-2.396,2.09-4.26,2.861  c-1.869,0.772-3.816,1.32-5.844,1.644v1.217h35.912v-1.217c-1.705-0.163-3.449-0.609-5.234-1.34s-3.166-1.783-4.139-3.165  c-0.65-0.893-1.016-2.435-1.096-4.626c-0.082-2.192-0.123-4.463-0.123-6.818v-26.175h48.09v19.235c0,2.841-0.043,5.601-0.123,8.278  c0,0.975-0.021,1.989-0.061,3.044c-0.041,1.056-0.104,2.07-0.182,3.044c-0.084,0.974-0.186,1.826-0.305,2.557  s-0.264,1.218-0.426,1.461c-0.65,1.055-1.988,2.009-4.018,2.861c-2.029,0.852-4.545,1.399-7.549,1.644v1.217h37.377v-1.217  c-2.111-0.244-4.059-0.688-5.844-1.34C1393.09,736.118,1391.67,734.984,1390.613,733.359z M1235.586,585.586  c0.949-1.851,1.424-3.944,1.424-6.281c0-3.458-0.912-6.344-2.732-8.656c-1.82-2.313-4.383-4.079-7.688-5.296  c-0.924-0.341-1.812-0.658-2.662-0.95s-1.688-0.572-2.512-0.84c-0.826-0.266-1.664-0.548-2.514-0.84s-1.762-0.633-2.732-1.022  c-2.479-0.926-4.494-2.165-6.047-3.726c-1.555-1.559-2.33-3.628-2.33-6.209c0-1.654,0.279-3.129,0.838-4.42  c0.561-1.29,1.34-2.374,2.338-3.25c0.998-0.877,2.164-1.534,3.508-1.973c1.338-0.438,2.762-0.657,4.271-0.657  c1.9,0,3.627,0.39,5.186,1.169c1.561,0.779,2.947,1.789,4.166,3.031c1.217,1.242,2.289,2.654,3.215,4.236  c0.922,1.583,1.68,3.178,2.264,4.785h0.803v-13.514h-0.803c-0.389,0.584-0.814,1.169-1.279,1.753  c-0.463,0.584-0.768,0.877-0.912,0.877c-0.049,0-0.328-0.183-0.84-0.548s-1.268-0.768-2.264-1.206c-1-0.438-2.277-0.84-3.836-1.205  c-1.561-0.365-3.434-0.548-5.625-0.548c-2.336,0-4.564,0.305-6.684,0.913c-2.117,0.611-3.988,1.546-5.609,2.812  c-1.619,1.269-2.912,2.849-3.871,4.748c-0.961,1.899-1.439,4.164-1.439,6.793c0,1.561,0.268,3.032,0.803,4.42  s1.242,2.654,2.119,3.799c0.879,1.144,1.9,2.145,3.07,2.994c1.166,0.853,2.383,1.522,3.652,2.009c1.119,0.438,2.08,0.792,2.885,1.06  c0.803,0.268,1.58,0.535,2.338,0.804c0.752,0.268,1.568,0.548,2.447,0.84c0.875,0.292,1.898,0.657,3.068,1.096  c1.168,0.438,2.264,0.925,3.287,1.461c1.021,0.538,1.908,1.181,2.664,1.936c0.754,0.757,1.35,1.644,1.789,2.666  c0.439,1.023,0.656,2.216,0.656,3.58c0,3.359-1.119,6.026-3.359,7.998c-2.24,1.973-5.162,2.959-8.764,2.959  c-1.268,0-2.58-0.22-3.943-0.657c-1.365-0.438-2.461-0.877-3.287-1.315c-0.828-0.438-1.693-1.069-2.592-1.899  c-0.902-0.827-1.754-1.789-2.559-2.885s-1.547-2.265-2.229-3.507c-0.684-1.241-1.242-2.52-1.68-3.835h-0.73l0.219,14.537h0.658  c0.387-0.536,0.824-1.096,1.312-1.681c0.486-0.584,0.803-0.876,0.951-0.876c0.145,0,0.498,0.17,1.057,0.511s1.398,0.719,2.521,1.132  c1.119,0.414,2.529,0.768,4.236,1.06c1.705,0.292,3.75,0.438,6.135,0.438c2.775,0,5.334-0.316,7.668-0.949  c2.338-0.634,4.35-1.607,6.029-2.922C1233.32,589.02,1234.637,587.438,1235.586,585.586z M1277.148,815.813  c-1.047,0.219-2.373,0.354-3.979,0.401c-1.85,0-3.508,0.012-4.969,0.036c-1.459,0.024-2.873,0.049-4.236,0.073  c-1.365,0.024-2.775,0.037-4.238,0.037h-13.879c-1.363,0-2.773-0.011-4.236-0.037s-3.115-0.061-4.965-0.109  c-1.805-0.047-3.178-0.146-4.127-0.292c-0.949-0.146-1.986-0.339-3.105-0.585l-2.191,13.88l0.658,0.219  c0.291-0.877,0.693-1.777,1.205-2.703c0.512-0.925,1.047-1.789,1.607-2.593c0.557-0.804,1.096-1.544,1.605-2.229  c0.512-0.682,0.963-1.192,1.352-1.533c1.023-0.973,2.129-1.654,3.326-2.046c1.193-0.39,2.711-0.608,4.566-0.657  c0.922,0,1.738-0.01,2.445-0.036c0.705-0.026,1.375-0.037,2.008-0.037h4.818v28.343c0,1.461-0.012,2.875-0.035,4.236  c-0.025,1.363-0.047,2.605-0.072,3.726c-0.027,1.12-0.035,2.021-0.035,2.703c0,0.779-0.018,1.582-0.041,2.41  c-0.025,0.828-0.07,1.595-0.143,2.301c-0.074,0.706-0.174,1.34-0.295,1.899c-0.123,0.561-0.303,0.962-0.547,1.205  c-1.123,1.269-2.268,2.072-3.436,2.411c-1.168,0.341-2.387,0.584-3.65,0.73v0.73h23.738v-0.73c-1.068-0.195-2.279-0.487-3.613-0.877  c-1.34-0.39-2.375-1.12-3.107-2.191c-0.387-0.535-0.619-1.448-0.693-2.739c-0.07-1.288-0.107-2.64-0.107-4.054v-28.562  c0-2.289,0.008-4.48,0.037-6.574c0.023-2.093,0.035-3.75,0.035-4.968h4.82c0.682,0,1.363,0.013,2.049,0.037  c0.682,0.023,1.48,0.036,2.41,0.036c1.852,0.049,3.373,0.231,4.566,0.548c1.193,0.318,2.299,0.964,3.324,1.936  c0.389,0.341,0.85,0.864,1.389,1.57c0.535,0.707,1.082,1.476,1.643,2.302c0.561,0.827,1.109,1.716,1.645,2.666  c0.535,0.949,0.998,1.862,1.389,2.739l0.656-0.22l-2.336-14.244C1279.281,815.316,1278.193,815.596,1277.148,815.813z   M1894.518,734.333c-2.842-1.948-5.764-5.03-8.766-9.253c-1.947-2.757-4.16-5.923-6.637-9.496c-2.475-3.569-4.768-6.896-6.879-9.983  c-1.217-1.704-2.477-3.244-3.773-4.626c-1.299-1.38-2.639-2.435-4.016-3.165v-0.365c2.678-0.891,5.234-1.986,7.67-3.287  c2.434-1.299,4.566-2.861,6.391-4.688c1.826-1.826,3.287-3.937,4.383-6.331c1.096-2.392,1.645-5.093,1.645-8.096  c0-4.87-1.096-8.905-3.287-12.113c-2.191-3.206-5.074-5.743-8.646-7.609c-3.488-1.867-7.344-2.963-11.562-3.287  c-4.223-0.323-9.053-0.487-14.49-0.487h-8.521c-3.49,0-6.98,0.021-10.469,0.062c-3.492,0.042-6.617,0.061-9.375,0.061h-4.99v1.218  c2.191,0.326,4.035,0.712,5.537,1.156c1.502,0.446,2.861,1.318,4.078,2.617c0.486,0.487,0.873,1.278,1.156,2.374  c0.285,1.096,0.488,2.313,0.609,3.652c0.123,1.34,0.203,2.76,0.244,4.262c0.039,1.503,0.061,2.982,0.061,4.443v30.802  c0,2.435-0.023,4.809-0.061,7.122c-0.043,2.313-0.082,4.443-0.123,6.392c-0.043,1.948-0.061,3.49-0.061,4.626  c0,1.299-0.043,2.638-0.121,4.018c-0.084,1.382-0.186,2.679-0.305,3.896c-0.121,1.217-0.305,2.312-0.549,3.287  c-0.242,0.974-0.57,1.704-0.973,2.191c-1.059,1.298-2.518,2.272-4.383,2.922c-1.869,0.649-3.818,1.138-5.844,1.461v1.217h38.957  v-1.217c-3.328-0.163-5.926-0.792-7.791-1.888c-1.869-1.096-3.127-2.171-3.773-3.226c-0.812-1.218-1.258-2.758-1.34-4.627  c-0.082-1.866-0.162-4.099-0.244-6.695c-0.08-2.679-0.121-5.966-0.121-9.862v-13.757c1.137,0.081,2.07,0.122,2.801,0.122  c0.809,0,1.986,0.164,3.529,0.486c2.109,0.408,4.117,1.421,6.027,3.044c1.904,1.625,3.672,3.368,5.295,5.235  c1.949,2.272,3.631,4.322,5.051,6.148s2.742,3.634,3.957,5.417c1.219,1.786,2.412,3.592,3.594,5.418  c1.174,1.826,2.533,3.878,4.078,6.148c1.299,1.868,2.252,3.269,2.861,4.2c0.609,0.933,1.113,1.644,1.521,2.13  c0.404,0.487,0.771,0.913,1.096,1.278c0.322,0.365,0.852,0.913,1.58,1.644h24.961v-1.217  C1900.684,737.539,1897.359,736.281,1894.518,734.333z M1855.803,694.278c-2.678,0.896-5.461,1.481-8.34,1.766  c-2.881,0.286-5.984,0.426-9.312,0.426v-13.392c0-3.328,0.018-6.775,0.061-10.349c0.041-3.571,0.1-6.775,0.182-9.617  c0.08-1.865,0.141-3.306,0.184-4.322c0.041-1.015,0.078-1.806,0.121-2.374c0.043-0.566,0.102-1.035,0.186-1.4  c0.078-0.365,0.16-0.791,0.24-1.278c0.566-0.079,1.381-0.162,2.436-0.243s2.436-0.122,4.139-0.122c2.355,0,4.607,0.203,6.758,0.608  c2.15,0.408,4.199,1.058,6.148,1.948c3.896,1.869,6.857,4.383,8.887,7.549c2.027,3.165,3.045,6.776,3.045,10.835  c0,2.191-0.287,4.304-0.854,6.331c-0.568,2.028-1.443,3.916-2.617,5.661c-1.178,1.745-2.699,3.307-4.566,4.687  C1860.631,692.373,1858.398,693.467,1855.803,694.278z M1767.781,663.903c-3.816-4.099-8.461-7.365-13.939-9.801  c-5.479-2.435-11.668-3.652-18.564-3.652c-6.33,0-12.359,1.035-18.08,3.104s-10.713,5.032-14.975,8.888s-7.65,8.564-10.166,14.122  c-2.518,5.562-3.773,11.832-3.773,18.81c0,6.574,1.197,12.601,3.592,18.079s5.662,10.188,9.801,14.123  c4.139,3.937,8.969,6.979,14.49,9.131c5.516,2.152,11.361,3.227,17.531,3.227c6.246,0,12.152-1.096,17.711-3.287  c5.561-2.191,10.43-5.316,14.609-9.375c4.18-4.058,7.488-8.845,9.926-14.366c2.432-5.519,3.652-11.522,3.652-18.018  c0-5.844-1.018-11.444-3.045-16.801C1774.518,672.729,1771.596,668.002,1767.781,663.903z M1762.609,710.349  c-1.26,5.113-3.148,9.722-5.662,13.818c-2.516,4.101-5.66,7.447-9.436,10.044c-3.771,2.6-8.217,3.896-13.328,3.896  c-5.115,0-9.6-1.175-13.453-3.531c-3.855-2.354-7.061-5.479-9.617-9.374c-2.557-3.896-4.486-8.4-5.785-13.514  s-1.947-10.428-1.947-15.949c0-5.275,0.588-10.488,1.764-15.644c1.176-5.154,3.002-9.761,5.479-13.818  c2.477-4.059,5.639-7.366,9.496-9.923c3.854-2.557,8.42-3.835,13.697-3.835c5.193,0,9.697,1.278,13.514,3.835  c3.814,2.557,7,5.887,9.557,9.983c2.557,4.101,4.463,8.666,5.723,13.696c1.256,5.034,1.887,10.026,1.887,14.975  C1764.494,700.122,1763.865,705.235,1762.609,710.349z M1149.195,651.668v1.217c2.191,0.327,3.977,0.67,5.357,1.035  s2.678,1.197,3.896,2.496c0.484,0.487,0.871,1.278,1.154,2.374c0.285,1.096,0.486,2.333,0.611,3.713  c0.121,1.382,0.201,2.841,0.24,4.383c0.043,1.544,0.062,3.044,0.062,4.505v30.802c0,2.435-0.021,4.809-0.062,7.122  c-0.039,2.312-0.08,4.443-0.121,6.392c-0.043,1.948-0.061,3.49-0.061,4.626c0,1.299-0.043,2.618-0.121,3.957  c-0.082,1.339-0.225,2.617-0.428,3.835c-0.205,1.218-0.426,2.295-0.668,3.227c-0.244,0.933-0.568,1.644-0.975,2.13  c-1.139,1.299-2.576,2.313-4.322,3.044c-1.744,0.73-3.633,1.26-5.66,1.583v1.217h38.957v-1.217  c-3.328-0.163-5.865-0.548-7.607-1.157c-1.746-0.608-2.984-1.479-3.715-2.617c-0.729-1.137-1.199-2.861-1.396-5.174  c-0.205-2.313-0.348-4.769-0.428-7.366c0-1.38-0.021-3.023-0.061-4.931c-0.043-1.905-0.061-3.997-0.061-6.27v-15.097h5.844  c0.809,0,1.662,0.021,2.557,0.061c0.893,0.043,1.949,0.102,3.168,0.183c2.352,0.165,4.4,0.591,6.148,1.278  c1.742,0.69,3.385,1.728,4.93,3.104c1.705,1.543,3.166,3.756,4.383,6.636c1.217,2.881,2.15,5.62,2.801,8.218h1.461v-39.202h-1.461  c-0.324,2.029-0.693,3.916-1.096,5.661c-0.406,1.745-1.096,3.348-2.072,4.809c-0.973,1.461-2.312,2.722-4.016,3.774  c-1.705,1.055-4.018,1.907-6.939,2.557c-1.139,0.243-2.557,0.426-4.264,0.548c-1.703,0.122-3.346,0.226-4.93,0.305  c-1.584,0.083-3.023,0.121-4.322,0.121h-2.191v-11.565c0-3.001,0.02-6.188,0.061-9.557c0.041-3.366,0.102-6.472,0.184-9.313  c0.078-1.461,0.162-2.697,0.242-3.714c0.08-1.015,0.16-1.845,0.244-2.496c0.078-0.646,0.184-1.217,0.303-1.704  c0.123-0.487,0.223-0.974,0.305-1.461c0.402,0,1.033-0.019,1.887-0.061c0.852-0.041,1.766-0.081,2.74-0.122  c0.973-0.04,1.986-0.081,3.045-0.122c1.055-0.04,1.986-0.061,2.799-0.061c4.787,0,8.99,0.224,12.602,0.67  c3.609,0.446,6.105,0.994,7.484,1.644c2.842,1.382,5.764,3.53,8.766,6.452s6.168,6.453,9.496,10.592l1.221-0.608l-8.279-20.453  H1149.195L1149.195,651.668z M1457.467,816.437c2.334,0.341,4.125,0.937,5.369,1.789c1.24,0.853,2.105,1.962,2.592,3.324  c0.389,1.022,0.609,2.422,0.658,4.2c0.047,1.777,0.07,3.64,0.07,5.588v24.836l-34.621-40.468h-14.83v0.73  c0.777,0.097,1.594,0.255,2.447,0.475c0.852,0.219,1.645,0.584,2.375,1.096c0.729,0.511,1.361,1.217,1.898,2.118  c0.535,0.9,0.877,2.058,1.023,3.47c0.047,1.414,0.072,2.605,0.072,3.579v8.912c0,3.263-0.025,6.318-0.072,9.167  c-0.049,2.85-0.123,5.32-0.217,7.415c-0.1,2.775-0.246,5.161-0.441,7.158s-0.633,3.506-1.312,4.529  c-0.684,1.071-1.607,1.838-2.775,2.301c-1.17,0.465-2.338,0.767-3.506,0.913v0.73h17.967v-0.73  c-1.996-0.244-3.568-0.646-4.711-1.205c-1.143-0.559-1.984-1.398-2.52-2.521c-0.486-0.974-0.793-2.459-0.912-4.456  c-0.123-1.996-0.184-4.236-0.184-6.72v-30.826c3.312,3.701,6.453,7.28,9.424,10.737c2.971,3.46,6.002,7.001,9.094,10.629  c3.092,3.63,6.342,7.44,9.752,11.432c3.41,3.993,7.184,8.376,11.322,13.148c0.486,0.487,0.924,0.73,1.312,0.73  c0.244,0,0.428-0.061,0.551-0.183c0.121-0.121,0.182-0.28,0.182-0.475v-4.748c0-1.753-0.012-3.517-0.035-5.296  c-0.027-1.777-0.039-3.517-0.039-5.223v-4.675c0-3.264,0.039-6.319,0.109-9.168c0.074-2.849,0.158-5.32,0.256-7.414  c0.098-2.24,0.195-4.347,0.295-6.318c0.098-1.973,0.316-3.324,0.656-4.055c0.586-1.412,1.426-2.457,2.521-3.141  c1.094-0.682,2.541-1.143,4.346-1.388v-0.73h-18.115v0.73H1457.467z M1514.186,663.903c-3.816-4.099-8.461-7.365-13.939-9.801  c-5.479-2.435-11.67-3.652-18.566-3.652c-6.332,0-12.357,1.035-18.078,3.104s-10.713,5.032-14.977,8.888  c-4.26,3.855-7.65,8.564-10.166,14.122c-2.516,5.562-3.771,11.832-3.771,18.81c0,6.574,1.195,12.601,3.592,18.079  c2.395,5.479,5.66,10.188,9.801,14.123c4.139,3.937,8.967,6.979,14.488,9.131c5.518,2.152,11.361,3.227,17.533,3.227  c6.246,0,12.152-1.096,17.711-3.287s10.43-5.316,14.609-9.375c4.18-4.058,7.488-8.845,9.924-14.366  c2.434-5.519,3.652-11.522,3.652-18.018c0-5.844-1.016-11.444-3.043-16.801C1520.92,672.729,1518,668.002,1514.186,663.903z   M1509.012,710.349c-1.26,5.113-3.148,9.722-5.662,13.818c-2.516,4.101-5.66,7.447-9.436,10.044c-3.773,2.6-8.217,3.896-13.33,3.896  s-9.598-1.175-13.453-3.531c-3.855-2.354-7.059-5.479-9.615-9.374c-2.559-3.896-4.486-8.4-5.785-13.514  c-1.301-5.113-1.949-10.428-1.949-15.949c0-5.275,0.59-10.488,1.766-15.644c1.176-5.154,3.002-9.761,5.479-13.818  c2.477-4.059,5.639-7.366,9.496-9.923c3.854-2.557,8.42-3.835,13.697-3.835c5.193,0,9.697,1.278,13.514,3.835  c3.814,2.557,7,5.887,9.557,9.983c2.557,4.101,4.461,8.666,5.723,13.696c1.258,5.034,1.887,10.026,1.887,14.975  C1510.898,700.122,1510.27,705.235,1509.012,710.349z M1626.678,652.885c3.896,0.568,6.879,1.564,8.949,2.983  c2.068,1.42,3.508,3.267,4.322,5.539c0.646,1.705,1.014,4.038,1.096,7.001c0.078,2.964,0.121,6.068,0.121,9.313v41.393  l-57.705-67.446h-24.715v1.217c1.297,0.165,2.658,0.427,4.078,0.792c1.418,0.365,2.74,0.974,3.957,1.826  c1.217,0.852,2.271,2.029,3.166,3.53c0.891,1.502,1.461,3.43,1.703,5.783c0.082,2.355,0.125,4.344,0.125,5.966v14.853  c0,5.438-0.043,10.531-0.125,15.279c-0.08,4.748-0.201,8.869-0.365,12.356c-0.164,4.627-0.406,8.604-0.73,11.932  c-0.324,3.33-1.057,5.844-2.191,7.548c-1.137,1.786-2.676,3.066-4.623,3.835c-1.949,0.773-3.896,1.278-5.844,1.522v1.217h29.949  v-1.217c-3.33-0.406-5.947-1.076-7.854-2.009c-1.906-0.932-3.309-2.332-4.199-4.2c-0.812-1.622-1.318-4.097-1.521-7.427  c-0.205-3.328-0.303-7.062-0.303-11.201v-51.376c5.52,6.17,10.752,12.134,15.703,17.896c4.949,5.763,10.004,11.667,15.158,17.714  c5.152,6.047,10.57,12.397,16.254,19.053c5.68,6.658,11.969,13.961,18.871,21.915c0.809,0.812,1.541,1.217,2.191,1.217  c0.402,0,0.709-0.104,0.912-0.304c0.203-0.201,0.303-0.465,0.303-0.792v-7.913c0-2.922-0.02-5.864-0.059-8.826  c-0.043-2.963-0.061-5.864-0.061-8.705v-7.792c0-5.436,0.061-10.531,0.182-15.279c0.125-4.748,0.264-8.867,0.426-12.356  c0.164-3.731,0.324-7.244,0.488-10.531c0.162-3.287,0.527-5.539,1.096-6.757c0.971-2.354,2.373-4.099,4.199-5.235  c1.824-1.136,4.24-1.905,7.242-2.313v-1.217h-30.193v1.217H1626.678z M714.506,669.38c-2.234-3.123-4.852-5.823-7.853-8.097  c-3.003-2.272-6.209-4.139-9.618-5.6c-2.599-1.137-5.234-1.986-7.913-2.557c-2.679-0.566-5.357-0.975-8.035-1.218  c-2.679-0.243-5.357-0.365-8.035-0.365h-7.792c-9.09,0-16.843,0.021-23.253,0.061c-6.412,0.043-11.322,0.062-14.731,0.062v1.217  c2.11,0.244,4.018,0.651,5.722,1.218c1.705,0.568,3.166,1.583,4.383,3.044c0.487,0.567,0.853,1.359,1.096,2.374  c0.244,1.015,0.427,2.152,0.548,3.408c0.122,1.261,0.183,2.618,0.183,4.079v35.185c0,2.435-0.02,4.809-0.061,7.122  c-0.043,2.312-0.081,4.443-0.122,6.392c-0.042,1.947-0.061,3.49-0.061,4.626c0,1.299-0.043,2.638-0.122,4.018  c-0.081,1.382-0.203,2.679-0.365,3.896c-0.164,1.218-0.347,2.313-0.548,3.287c-0.204,0.975-0.507,1.664-0.913,2.07  c-0.974,1.138-2.414,2.112-4.321,2.922c-1.907,0.812-3.878,1.339-5.905,1.582v1.218h44.438c3.731,0,7.589-0.262,11.565-0.791  c3.976-0.527,7.833-1.438,11.566-2.739c3.733-1.297,7.264-3.044,10.592-5.235c3.327-2.191,6.249-4.949,8.766-8.278  c2.516-3.328,4.505-7.305,5.966-11.932c1.461-4.626,2.191-9.982,2.191-16.07c0-5.275-0.67-9.963-2.01-14.062  C718.524,676.118,716.738,672.507,714.506,669.38z M700.384,721.367c-4.343,7.266-10.896,12.156-19.662,14.67  c-1.869,0.568-3.878,0.956-6.026,1.157c-2.151,0.202-4.241,0.304-6.271,0.304c-2.191,0-4.524-0.223-7-0.669  c-2.476-0.444-4.525-1.479-6.148-3.104c-0.486-0.487-0.913-1.236-1.278-2.253c-0.365-1.015-0.631-2.148-0.791-3.408  c-0.164-1.259-0.305-2.557-0.427-3.896c-0.121-1.339-0.182-2.574-0.182-3.713c-0.084-2.679-0.122-6.128-0.122-10.349v-14.244  c0-9.658,0.04-17.976,0.122-24.958c0.079-6.978,0.322-12.458,0.73-16.436c0.565-0.162,1.316-0.284,2.252-0.365  c0.932-0.081,1.947-0.183,3.043-0.305c1.096-0.121,2.21-0.202,3.349-0.243c1.136-0.04,2.191-0.061,3.165-0.061  c2.841,0,5.235,0.102,7.184,0.304c1.947,0.203,3.731,0.467,5.356,0.792c4.219,0.73,8.116,2.354,11.688,4.87  c3.571,2.516,6.655,5.579,9.253,9.191c2.597,3.611,4.626,7.651,6.087,12.113c1.461,4.464,2.191,9.05,2.191,13.758  C706.897,705.154,704.724,714.104,700.384,721.367z M765.272,736.585c-1.015-0.444-1.847-1.015-2.495-1.704  c-0.65-0.688-0.975-1.562-0.975-2.617c0-1.784,0.853-4.87,2.557-9.253c1.137-2.839,2.271-5.661,3.409-8.461  c1.136-2.801,2.313-5.743,3.53-8.827h32.385c1.217,3.165,2.354,6.209,3.408,9.131c1.054,2.922,1.986,5.58,2.801,7.975  c0.81,2.395,1.438,4.425,1.887,6.087c0.446,1.664,0.67,2.861,0.67,3.592c0,1.139-0.386,2.069-1.157,2.8  c-0.772,0.73-1.663,1.299-2.678,1.705c-1.017,0.407-1.991,0.689-2.922,0.852c-0.934,0.165-1.522,0.244-1.766,0.244v1.217h35.55  v-1.461c-1.869-0.079-3.492-0.444-4.87-1.096c-1.38-0.649-2.536-1.399-3.47-2.252s-1.687-1.685-2.252-2.496  c-0.568-0.81-0.934-1.38-1.096-1.704c-0.975-2.11-1.847-3.997-2.617-5.661c-0.771-1.662-1.604-3.754-2.496-6.27  c-1.948-5.113-3.896-10.288-5.844-15.523c-1.948-5.234-3.957-10.652-6.026-16.253c-2.07-5.6-4.241-11.424-6.514-17.47  c-2.272-6.045-4.667-12.437-7.183-19.175h-0.975c-0.324,0.567-0.791,1.298-1.399,2.191c-0.608,0.893-1.359,1.826-2.253,2.8  c-0.893,0.974-1.93,1.907-3.104,2.8c-1.179,0.896-2.495,1.664-3.956,2.313l1.217,2.679c-1.947,4.547-4.018,9.435-6.209,14.67  s-4.402,10.43-6.635,15.583c-2.234,5.156-4.403,10.166-6.514,15.036c-2.112,4.87-4.018,9.212-5.722,13.026  c-1.867,4.14-3.449,7.265-4.748,9.375c-1.299,2.112-2.234,3.451-2.8,4.018c-0.244,0.324-1.116,0.933-2.618,1.826  c-1.503,0.893-3.306,1.461-5.417,1.704v1.339h25.932v-1.217c-1.056-0.163-2.172-0.344-3.349-0.548  C767.384,737.356,766.287,737.031,765.272,736.585z M777.814,689.835c1.662-4.097,3.184-7.771,4.565-11.018  c1.38-3.247,2.536-6.007,3.47-8.279c0.932-2.272,1.644-3.937,2.131-4.991c0.73,1.785,1.644,4.078,2.739,6.879  c1.096,2.8,2.312,5.886,3.652,9.252c1.339,3.37,2.717,6.879,4.139,10.531c1.419,3.652,2.818,7.305,4.2,10.957h-30.314  C774.344,698.378,776.148,693.934,777.814,689.835z M798.511,815.705v0.731c1.314,0.194,2.386,0.401,3.214,0.62  c0.827,0.22,1.606,0.719,2.337,1.498c0.292,0.292,0.521,0.767,0.694,1.424c0.17,0.658,0.292,1.4,0.365,2.229  c0.073,0.827,0.121,1.704,0.146,2.63c0.024,0.925,0.037,1.826,0.037,2.702v18.481c0,1.461-0.013,2.885-0.037,4.273  c-0.024,1.388-0.049,2.666-0.072,3.835c-0.026,1.168-0.037,2.094-0.037,2.775c0,0.779-0.026,1.57-0.073,2.374  c-0.048,0.804-0.134,1.57-0.255,2.301c-0.122,0.73-0.256,1.376-0.402,1.936c-0.146,0.561-0.341,0.986-0.584,1.278  c-0.682,0.779-1.547,1.389-2.594,1.826c-1.047,0.438-2.179,0.757-3.396,0.95v0.73h23.375v-0.73  c-1.996-0.098-3.519-0.329-4.565-0.694c-1.049-0.365-1.79-0.889-2.228-1.57c-0.438-0.682-0.719-1.717-0.84-3.104  c-0.122-1.388-0.207-2.861-0.256-4.419c0-0.828-0.013-1.814-0.037-2.959c-0.024-1.143-0.036-2.398-0.036-3.762v-9.058h3.506  c0.487,0,0.999,0.012,1.534,0.036c0.536,0.024,1.169,0.061,1.899,0.109c1.412,0.098,2.64,0.354,3.688,0.768  c1.047,0.414,2.033,1.034,2.959,1.862c1.022,0.926,1.898,2.252,2.63,3.981c0.73,1.729,1.29,3.372,1.68,4.931h0.877v-23.521h-0.877  c-0.194,1.218-0.414,2.35-0.657,3.396c-0.243,1.049-0.657,2.009-1.242,2.886c-0.584,0.876-1.388,1.631-2.41,2.265  c-1.022,0.633-2.41,1.145-4.164,1.533c-0.682,0.146-1.533,0.256-2.557,0.329c-1.022,0.073-2.009,0.134-2.958,0.183  c-0.95,0.049-1.816,0.073-2.594,0.073h-1.314v-6.939c0-1.802,0.012-3.714,0.036-5.734s0.062-3.884,0.11-5.588  c0.046-0.877,0.097-1.617,0.146-2.229c0.049-0.608,0.098-1.107,0.146-1.497c0.047-0.39,0.109-0.73,0.183-1.022  s0.134-0.585,0.183-0.877c0.243,0,0.621-0.01,1.132-0.036c0.512-0.024,1.06-0.047,1.644-0.073c0.585-0.026,1.193-0.049,1.826-0.073  c0.634-0.024,1.193-0.036,1.681-0.036c2.873,0,5.394,0.134,7.561,0.401c2.165,0.268,3.664,0.597,4.492,0.986  c1.704,0.828,3.457,2.118,5.259,3.871c1.801,1.754,3.699,3.872,5.698,6.355l0.73-0.365l-4.968-12.272H798.511z M907.203,823.047  c-2.288-2.459-5.076-4.419-8.363-5.88c-3.287-1.462-7.003-2.192-11.14-2.192c-3.799,0-7.415,0.621-10.848,1.863  c-3.434,1.241-6.429,3.02-8.985,5.332c-2.557,2.313-4.59,5.138-6.099,8.474c-1.51,3.338-2.265,7.1-2.265,11.286  c0,3.944,0.718,7.561,2.154,10.848c1.438,3.287,3.397,6.111,5.881,8.474c2.483,2.363,5.381,4.188,8.692,5.479  c3.312,1.29,6.817,1.936,10.519,1.936c3.75,0,7.293-0.658,10.629-1.973s6.256-3.189,8.766-5.625  c2.508-2.435,4.492-5.308,5.953-8.619s2.191-6.915,2.191-10.811c0-3.507-0.608-6.867-1.826-10.081S909.492,825.506,907.203,823.047z   M904.098,850.914c-0.757,3.068-1.887,5.832-3.396,8.291s-3.396,4.468-5.661,6.026c-2.265,1.561-4.931,2.338-7.999,2.338  c-3.067,0-5.758-0.706-8.071-2.118c-2.313-1.413-4.236-3.287-5.771-5.625s-2.69-5.04-3.47-8.108s-1.169-6.258-1.169-9.569  c0-3.165,0.353-6.294,1.059-9.387c0.706-3.09,1.802-5.854,3.287-8.291c1.485-2.435,3.385-4.419,5.698-5.953  c2.312-1.534,5.053-2.301,8.218-2.301c3.116,0,5.819,0.767,8.108,2.301c2.288,1.534,4.2,3.533,5.733,5.99  c1.534,2.459,2.677,5.198,3.434,8.218c0.755,3.021,1.132,6.017,1.132,8.984C905.231,844.778,904.853,847.847,904.098,850.914z   M749.789,590.006c0.779-0.512,1.217-0.768,1.314-0.768c0.243,0,0.682,0.342,1.314,1.023c0.634,0.682,1.242,1.437,1.826,2.264h0.877  l0.219-16.07h-0.876c-0.438,2.095-1.254,4.128-2.447,6.1c-1.193,1.973-2.656,3.716-4.383,5.223c-1.729,1.51-3.701,2.728-5.917,3.652  c-2.216,0.928-4.59,1.389-7.122,1.389c-3.214,0-6.136-0.658-8.766-1.973s-4.87-3.104-6.72-5.369  c-1.852-2.265-3.275-4.931-4.273-7.998c-0.999-3.068-1.498-6.355-1.498-9.862c0-3.311,0.475-6.537,1.425-9.679  c0.949-3.141,2.313-5.953,4.091-8.437s3.98-4.48,6.61-5.99s5.625-2.264,8.985-2.264c2.435,0,4.735,0.438,6.902,1.314  c2.165,0.877,4.115,2.071,5.844,3.579c1.729,1.51,3.225,3.287,4.492,5.333c1.267,2.045,2.216,4.236,2.85,6.574l0.876-0.073v-16.362  h-0.804c-0.292,0.438-0.608,0.864-0.949,1.278c-0.341,0.413-0.67,0.778-0.986,1.096c-0.316,0.316-0.608,0.584-0.876,0.803  c-0.269,0.22-0.45,0.329-0.548,0.329s-0.538-0.268-1.315-0.804c-0.779-0.535-1.899-1.12-3.36-1.753s-3.287-1.218-5.479-1.753  c-2.191-0.536-4.748-0.804-7.67-0.804c-3.214,0-6.111,0.341-8.692,1.022s-4.894,1.597-6.939,2.739  c-2.045,1.145-3.823,2.472-5.332,3.981c-1.51,1.51-2.776,3.092-3.799,4.748c-0.877,1.414-1.595,2.812-2.155,4.2  c-0.56,1.388-0.998,2.715-1.314,3.98c-0.316,1.269-0.536,2.46-0.657,3.58c-0.124,1.12-0.183,2.118-0.183,2.994  c0,3.945,0.682,7.561,2.045,10.848c1.361,3.287,3.324,6.112,5.881,8.474c2.557,2.362,5.66,4.188,9.312,5.479  c3.652,1.291,7.744,1.936,12.272,1.936c2.728,0,5.138-0.23,7.231-0.693c2.092-0.463,3.872-0.996,5.333-1.607  C747.889,591.077,749.009,590.517,749.789,590.006z M973.091,816.437c2.338,0.341,4.104,0.937,5.296,1.789  c1.191,0.853,2.031,1.962,2.521,3.324c0.195,0.486,0.341,1.132,0.438,1.936c0.097,0.804,0.168,1.668,0.219,2.593  c0.047,0.926,0.085,1.899,0.109,2.922s0.037,2.023,0.037,2.995v12.418c0,1.656-0.062,3.348-0.183,5.077  c-0.122,1.729-0.365,3.423-0.73,5.076c-0.365,1.656-0.928,3.214-1.681,4.675c-0.757,1.462-1.777,2.752-3.067,3.872  c-1.291,1.122-2.897,1.996-4.821,2.63c-1.924,0.633-4.273,0.949-7.049,0.949c-2.438,0-4.603-0.401-6.501-1.205  c-1.899-0.804-3.507-1.946-4.821-3.434c-1.315-1.482-2.338-3.287-3.068-5.405s-1.12-4.468-1.169-7.049  c0-1.169-0.012-2.276-0.036-3.324c-0.026-1.047-0.037-2.13-0.037-3.25v-14.536c0-0.926,0.011-1.873,0.037-2.85  c0.024-0.974,0.061-2.094,0.109-3.359c0.049-1.12,0.292-2.046,0.73-2.776s0.974-1.303,1.607-1.717  c0.633-0.414,1.339-0.718,2.118-0.913c0.777-0.192,1.51-0.339,2.191-0.438v-0.731h-21.769v0.731  c1.267,0.146,2.398,0.401,3.397,0.767c0.998,0.365,1.838,0.962,2.52,1.79c0.292,0.341,0.512,0.815,0.657,1.424  c0.146,0.608,0.256,1.291,0.329,2.046c0.073,0.754,0.109,1.57,0.109,2.446v12.346c0,2.678-0.012,5.113-0.036,7.305  c-0.026,2.191-0.037,3.971-0.037,5.332c0,0.584,0.037,1.474,0.11,2.666c0.072,1.193,0.316,2.508,0.73,3.945  c0.413,1.437,1.047,2.897,1.898,4.383c0.853,1.484,2.058,2.849,3.616,4.09c1.559,1.242,3.543,2.229,5.953,2.959  c2.411,0.73,5.369,1.096,8.875,1.096c3.554,0,6.551-0.378,8.985-1.133s4.432-1.775,5.99-3.067c1.558-1.291,2.764-2.728,3.615-4.31  c0.851-1.583,1.474-3.166,1.863-4.748c0.387-1.583,0.621-3.081,0.693-4.493c0.073-1.412,0.134-2.579,0.183-3.506  c0.098-3.261,0.183-6.183,0.256-8.766c0.073-2.581,0.134-4.919,0.183-7.013c0-1.12,0.024-2.252,0.073-3.396  c0.049-1.143,0.122-2.229,0.219-3.251c0.098-1.022,0.207-1.924,0.329-2.702c0.121-0.779,0.256-1.34,0.401-1.681  c0.585-1.412,1.398-2.457,2.447-3.141c1.047-0.682,2.472-1.143,4.273-1.388v-0.731h-18.116V816.437z M589.23,724.654  c-1.907,2.478-3.877,4.565-5.904,6.27c-2.029,1.705-4.14,3.025-6.331,3.957c-2.191,0.934-4.586,1.564-7.183,1.887  c-2.355,0.325-4.608,0.527-6.757,0.609c-2.151,0.081-3.916,0.121-5.296,0.121c-3.249,0-6.252-0.243-9.01-0.73  c-2.759-0.486-4.504-1.299-5.234-2.435c-0.73-1.137-1.199-2.861-1.4-5.174c-0.205-2.313-0.347-4.769-0.426-7.366  c0-0.81-0.021-1.806-0.061-2.982c-0.043-1.177-0.062-2.415-0.062-3.714v-14.609c0-2.191,0.079-3.853,0.243-4.991h5.601  c0.81,0,1.623,0.021,2.435,0.061c0.811,0.043,1.826,0.102,3.044,0.183c2.435,0.165,4.565,0.609,6.392,1.34s3.387,1.663,4.688,2.8  c1.461,1.382,2.861,3.451,4.2,6.209c1.339,2.76,2.331,5.438,2.982,8.035h1.461v-38.35h-1.461c-0.486,2.272-1.034,4.322-1.644,6.148  c-0.608,1.826-1.422,3.429-2.435,4.809c-1.015,1.382-2.333,2.557-3.957,3.53c-1.625,0.975-3.652,1.747-6.087,2.313  c-1.058,0.243-2.374,0.426-3.957,0.548c-1.582,0.122-3.165,0.226-4.748,0.305c-1.582,0.083-2.982,0.121-4.2,0.121h-2.435v-1.339  c0-0.73-0.021-1.766-0.062-3.104c-0.042-1.339-0.061-3.062-0.061-5.174v-7.792c0-5.356,0.061-10.062,0.183-14.123  c0.122-4.058,0.262-6.736,0.426-8.035c0.81-0.162,2.131-0.304,3.957-0.426s3.592-0.183,5.296-0.183c5.356,0,9.902,0.243,13.636,0.73  c3.731,0.487,6.288,1.058,7.67,1.704c5.763,2.843,11.931,8.362,18.505,16.558l1.218-0.608l-8.279-20.088h-67.203v1.217  c2.191,0.327,3.976,0.67,5.357,1.035c1.379,0.365,2.678,1.197,3.896,2.496c0.487,0.486,0.87,1.278,1.156,2.374  c0.284,1.096,0.487,2.333,0.609,3.713c0.121,1.382,0.2,2.841,0.243,4.383c0.041,1.544,0.061,3.044,0.061,4.505v30.802  c0,2.435-0.02,4.809-0.061,7.122c-0.043,2.312-0.081,4.443-0.122,6.392c-0.042,1.947-0.061,3.49-0.061,4.626  c0,1.299-0.043,2.617-0.122,3.957c-0.081,1.339-0.223,2.617-0.426,3.835c-0.203,1.217-0.426,2.295-0.67,3.227  c-0.243,0.933-0.567,1.643-0.974,2.13c-1.139,1.299-2.577,2.313-4.322,3.044c-1.747,0.73-3.634,1.26-5.661,1.583v1.217h74.509  l6.087-23.253l-1.339-0.365C593.106,719.196,591.137,722.179,589.23,724.654z M1111.576,712.905  c2.435-5.519,3.652-11.522,3.652-18.018c0-5.844-1.018-11.444-3.044-16.801c-2.029-5.357-4.951-10.085-8.767-14.184  c-3.814-4.099-8.461-7.365-13.939-9.801c-5.479-2.435-11.667-3.652-18.566-3.652c-6.33,0-12.356,1.035-18.079,3.104  c-5.722,2.069-10.713,5.032-14.975,8.888c-4.261,3.855-7.651,8.564-10.165,14.122c-2.517,5.562-3.774,11.832-3.774,18.81  c0,6.574,1.195,12.601,3.592,18.079c2.394,5.479,5.661,10.188,9.8,14.123c4.14,3.937,8.967,6.979,14.488,9.131  c5.519,2.152,11.362,3.227,17.531,3.227c6.25,0,12.154-1.096,17.714-3.287c5.558-2.191,10.428-5.316,14.609-9.375  C1105.833,723.214,1109.14,718.425,1111.576,712.905z M1098.244,710.349c-1.26,5.113-3.146,9.722-5.66,13.818  c-2.517,4.101-5.662,7.447-9.436,10.044c-3.774,2.6-8.219,3.896-13.332,3.896s-9.597-1.175-13.452-3.531  c-3.855-2.354-7.062-5.479-9.618-9.374c-2.557-3.896-4.486-8.4-5.783-13.514c-1.301-5.113-1.947-10.428-1.947-15.949  c0-5.275,0.588-10.488,1.765-15.644c1.177-5.154,3.001-9.761,5.479-13.818c2.476-4.059,5.642-7.366,9.496-9.923  c3.854-2.557,8.419-3.835,13.696-3.835c5.193,0,9.697,1.278,13.514,3.835c3.815,2.557,7.001,5.887,9.558,9.983  c2.557,4.101,4.464,8.666,5.722,13.696c1.258,5.034,1.887,10.026,1.887,14.975C1100.13,700.122,1099.501,705.235,1098.244,710.349z   M1153.008,593.768c1.703,0.292,3.75,0.438,6.135,0.438c2.773,0,5.332-0.316,7.668-0.95c2.338-0.633,4.35-1.606,6.029-2.922  c1.678-1.314,2.994-2.897,3.941-4.748c0.951-1.851,1.426-3.944,1.426-6.281c0-3.458-0.912-6.344-2.734-8.656  c-1.82-2.313-4.383-4.079-7.686-5.296c-0.924-0.341-1.812-0.658-2.662-0.95s-1.688-0.572-2.512-0.84  c-0.826-0.266-1.664-0.548-2.514-0.84c-0.852-0.292-1.762-0.633-2.732-1.022c-2.479-0.926-4.494-2.165-6.049-3.726  c-1.553-1.559-2.328-3.628-2.328-6.209c0-1.654,0.279-3.129,0.838-4.42c0.559-1.29,1.338-2.374,2.338-3.25  c0.998-0.877,2.164-1.534,3.508-1.973c1.336-0.438,2.762-0.657,4.271-0.657c1.9,0,3.627,0.39,5.186,1.169  c1.561,0.779,2.947,1.789,4.166,3.031c1.217,1.242,2.289,2.654,3.213,4.236c0.924,1.583,1.682,3.178,2.266,4.785h0.803v-13.514  h-0.803c-0.391,0.584-0.816,1.169-1.281,1.753c-0.463,0.584-0.766,0.877-0.91,0.877c-0.049,0-0.328-0.183-0.84-0.548  s-1.268-0.768-2.266-1.206c-0.998-0.438-2.275-0.84-3.834-1.205s-3.434-0.548-5.625-0.548c-2.338,0-4.564,0.305-6.684,0.913  c-2.119,0.611-3.988,1.546-5.611,2.812c-1.619,1.269-2.91,2.849-3.869,4.748c-0.961,1.899-1.439,4.164-1.439,6.793  c0,1.561,0.268,3.032,0.803,4.42s1.242,2.654,2.119,3.799c0.877,1.144,1.9,2.145,3.068,2.994c1.168,0.853,2.385,1.522,3.652,2.009  c1.121,0.438,2.08,0.792,2.887,1.06c0.803,0.268,1.58,0.535,2.338,0.804c0.752,0.268,1.568,0.548,2.445,0.84s1.9,0.657,3.068,1.096  c1.17,0.438,2.266,0.925,3.287,1.461c1.023,0.538,1.91,1.181,2.664,1.936c0.756,0.757,1.352,1.644,1.791,2.666  c0.439,1.023,0.656,2.216,0.656,3.58c0,3.359-1.119,6.026-3.359,7.998c-2.24,1.973-5.162,2.959-8.764,2.959  c-1.268,0-2.582-0.22-3.945-0.657c-1.363-0.438-2.459-0.877-3.287-1.315s-1.691-1.069-2.59-1.899  c-0.904-0.827-1.754-1.789-2.559-2.885s-1.547-2.265-2.229-3.507c-0.684-1.241-1.242-2.52-1.68-3.835h-0.73l0.219,14.537h0.656  c0.389-0.536,0.826-1.096,1.314-1.681c0.486-0.584,0.803-0.876,0.951-0.876c0.145,0,0.496,0.17,1.057,0.511  c0.559,0.341,1.398,0.719,2.52,1.132C1149.891,593.122,1151.301,593.476,1153.008,593.768z M1027.002,592.964  c-1.997-0.097-3.555-0.475-4.675-1.132s-1.875-1.303-2.265-1.936c-0.487-0.73-0.757-1.654-0.804-2.776  c-0.049-1.12-0.098-2.457-0.146-4.018c-0.048-1.606-0.072-3.579-0.072-5.917v-8.254c0.682,0.049,1.241,0.073,1.68,0.073  c0.487,0,1.193,0.097,2.118,0.292c1.267,0.243,2.472,0.853,3.616,1.826c1.143,0.974,2.201,2.021,3.178,3.141  c1.168,1.364,2.179,2.594,3.031,3.689c0.85,1.096,1.644,2.179,2.374,3.25s1.448,2.155,2.155,3.251  c0.706,1.096,1.521,2.325,2.446,3.688c0.777,1.12,1.352,1.961,1.717,2.521c0.365,0.561,0.67,0.986,0.913,1.278  c0.244,0.292,0.463,0.548,0.657,0.767c0.193,0.22,0.512,0.548,0.95,0.986h14.975v-0.73c-2.289-0.341-4.285-1.096-5.99-2.265  c-1.706-1.168-3.459-3.019-5.259-5.551c-1.169-1.656-2.496-3.556-3.981-5.698s-2.861-4.139-4.127-5.989  c-0.73-1.023-1.485-1.946-2.265-2.776c-0.779-0.828-1.583-1.461-2.411-1.899v-0.219c1.607-0.536,3.142-1.193,4.603-1.973  s2.739-1.716,3.835-2.812c1.096-1.096,1.973-2.361,2.63-3.798s0.986-3.056,0.986-4.857c0-2.922-0.657-5.345-1.973-7.269  c-1.314-1.924-3.044-3.445-5.187-4.565c-2.094-1.12-4.407-1.777-6.939-1.973c-2.532-0.194-5.43-0.292-8.692-0.292h-5.113  c-2.094,0-4.188,0.013-6.282,0.037s-3.971,0.036-5.625,0.036h-2.994v0.73c1.314,0.194,2.422,0.426,3.323,0.694  c0.901,0.268,1.717,0.791,2.447,1.57c0.292,0.292,0.521,0.767,0.694,1.424c0.17,0.658,0.292,1.389,0.365,2.191  c0.072,0.804,0.121,1.656,0.146,2.557c0.024,0.901,0.036,1.79,0.036,2.667v18.48c0,1.461-0.012,2.886-0.036,4.273  s-0.049,2.666-0.073,3.835c-0.026,1.169-0.036,2.094-0.036,2.775c0,0.779-0.026,1.583-0.073,2.411  c-0.049,0.83-0.109,1.606-0.183,2.337s-0.183,1.389-0.329,1.973c-0.146,0.584-0.341,1.022-0.584,1.314  c-0.633,0.779-1.51,1.364-2.63,1.754s-2.289,0.682-3.506,0.876v0.73h23.375V592.964L1027.002,592.964z M1019.039,559.946  c0-1.996,0.012-4.065,0.036-6.209c0.024-2.143,0.062-4.065,0.109-5.771c0.047-1.12,0.086-1.984,0.11-2.593  c0.024-0.609,0.047-1.084,0.072-1.425c0.025-0.339,0.062-0.621,0.11-0.84c0.046-0.219,0.097-0.475,0.146-0.767  c0.342-0.047,0.828-0.098,1.461-0.146c0.634-0.049,1.461-0.073,2.484-0.073c1.412,0,2.764,0.122,4.054,0.365  c1.29,0.244,2.521,0.633,3.688,1.169c2.338,1.122,4.115,2.63,5.333,4.529c1.217,1.898,1.826,4.066,1.826,6.501  c0,1.314-0.171,2.581-0.512,3.798c-0.341,1.218-0.864,2.351-1.57,3.397c-0.706,1.049-1.619,1.986-2.739,2.812  c-1.12,0.827-2.459,1.485-4.018,1.972c-1.607,0.536-3.275,0.889-5.004,1.06c-1.73,0.17-3.594,0.256-5.588,0.256V559.946  L1019.039,559.946z M1140.701,826.334c-1.342-1.873-2.912-3.494-4.713-4.857c-1.801-1.361-3.725-2.483-5.77-3.36  c-1.561-0.682-3.141-1.193-4.748-1.534s-3.215-0.584-4.822-0.73c-1.605-0.146-3.213-0.219-4.821-0.219h-4.675  c-5.454,0-10.104,0.012-13.952,0.036c-3.847,0.024-6.793,0.037-8.838,0.037v0.73c1.266,0.146,2.41,0.389,3.433,0.73  c1.022,0.341,1.899,0.949,2.63,1.826c0.292,0.341,0.512,0.815,0.657,1.424c0.146,0.608,0.256,1.291,0.329,2.046  c0.072,0.754,0.109,1.57,0.109,2.446v21.111c0,1.461-0.012,2.885-0.037,4.273c-0.023,1.388-0.049,2.666-0.072,3.834  c-0.027,1.169-0.037,2.095-0.037,2.776c0,0.779-0.026,1.583-0.072,2.41c-0.049,0.83-0.122,1.607-0.22,2.338  c-0.097,0.73-0.209,1.388-0.329,1.973c-0.121,0.584-0.304,0.998-0.547,1.241c-0.585,0.682-1.449,1.269-2.594,1.753  c-1.145,0.487-2.325,0.804-3.543,0.95v0.73h26.662c2.241,0,4.553-0.158,6.94-0.475c2.385-0.317,4.699-0.865,6.939-1.644  c2.24-0.779,4.357-1.826,6.355-3.142c1.996-1.314,3.75-2.971,5.26-4.967c1.51-1.997,2.701-4.383,3.576-7.159  c0.879-2.775,1.314-5.989,1.314-9.642c0-3.166-0.4-5.979-1.205-8.438C1143.109,830.376,1142.037,828.209,1140.701,826.334z   M1132.225,857.525c-2.605,4.358-6.537,7.292-11.797,8.802c-1.119,0.341-2.324,0.574-3.615,0.694  c-1.291,0.121-2.545,0.183-3.762,0.183c-1.314,0-2.715-0.134-4.2-0.402c-1.485-0.268-2.715-0.889-3.688-1.862  c-0.293-0.292-0.549-0.743-0.768-1.352s-0.377-1.29-0.475-2.045s-0.183-1.534-0.256-2.338c-0.072-0.804-0.109-1.546-0.109-2.228  c-0.049-1.607-0.073-3.677-0.073-6.209v-8.547c0-5.795,0.024-10.784,0.073-14.975c0.049-4.188,0.195-7.476,0.438-9.861  c0.339-0.098,0.791-0.171,1.351-0.22c0.559-0.046,1.17-0.109,1.826-0.183c0.658-0.072,1.326-0.121,2.01-0.146  c0.682-0.024,1.314-0.037,1.898-0.037c1.705,0,3.142,0.062,4.311,0.183c1.168,0.122,2.241,0.28,3.213,0.476  c2.533,0.438,4.871,1.412,7.014,2.922c2.143,1.512,3.992,3.348,5.551,5.515s2.775,4.59,3.652,7.269  c0.877,2.678,1.314,5.43,1.314,8.254C1136.135,847.798,1134.83,853.167,1132.225,857.525z M1050.23,816.437  c2.337,0.341,4.127,0.937,5.368,1.789c1.242,0.853,2.106,1.962,2.594,3.324c0.39,1.022,0.608,2.422,0.657,4.2  c0.049,1.777,0.073,3.64,0.073,5.588v24.836l-34.625-40.468h-14.828v0.73c0.779,0.097,1.595,0.255,2.447,0.475  c0.85,0.219,1.644,0.584,2.374,1.096c0.73,0.511,1.363,1.217,1.898,2.118c0.536,0.9,0.877,2.058,1.023,3.47  c0.049,1.414,0.072,2.605,0.072,3.579v8.912c0,3.263-0.023,6.318-0.072,9.167c-0.049,2.85-0.122,5.32-0.22,7.415  c-0.097,2.775-0.243,5.161-0.438,7.158c-0.194,1.997-0.633,3.506-1.314,4.529c-0.682,1.071-1.607,1.838-2.775,2.301  c-1.169,0.465-2.338,0.767-3.507,0.913v0.73h17.97v-0.73c-1.996-0.244-3.566-0.646-4.711-1.205  c-1.145-0.559-1.987-1.398-2.521-2.521c-0.487-0.974-0.792-2.459-0.913-4.456c-0.122-1.996-0.183-4.236-0.183-6.72v-30.826  c3.312,3.701,6.452,7.28,9.423,10.737c2.971,3.46,6.002,7.001,9.095,10.629c3.092,3.63,6.343,7.44,9.752,11.432  c3.408,3.993,7.183,8.376,11.322,13.148c0.484,0.487,0.925,0.73,1.314,0.73c0.243,0,0.424-0.061,0.548-0.183  c0.122-0.121,0.183-0.28,0.183-0.475v-4.748c0-1.753-0.012-3.517-0.036-5.296c-0.024-1.777-0.037-3.517-0.037-5.223v-4.675  c0-3.264,0.037-6.319,0.11-9.168s0.158-5.32,0.255-7.414c0.098-2.24,0.195-4.347,0.293-6.318c0.097-1.973,0.316-3.324,0.657-4.055  c0.584-1.412,1.424-2.457,2.52-3.141c1.096-0.682,2.545-1.143,4.347-1.388v-0.73h-18.115V816.437z M1210.678,865.414  c-0.561-0.511-1.01-1.011-1.352-1.497c-0.34-0.485-0.561-0.828-0.656-1.022c-0.586-1.267-1.109-2.398-1.568-3.397  c-0.465-0.998-0.965-2.252-1.498-3.762c-1.168-3.068-2.338-6.173-3.508-9.313c-1.168-3.141-2.375-6.392-3.615-9.752  s-2.545-6.854-3.91-10.482c-1.363-3.628-2.799-7.463-4.309-11.505h-0.582c-0.197,0.341-0.475,0.779-0.84,1.315  c-0.369,0.535-0.816,1.096-1.352,1.68c-0.539,0.585-1.158,1.145-1.863,1.681c-0.709,0.537-1.498,0.998-2.375,1.388l0.729,1.606  c-1.168,2.728-2.41,5.661-3.725,8.803c-1.312,3.141-2.643,6.258-3.98,9.35c-1.34,3.093-2.643,6.1-3.908,9.021  c-1.27,2.922-2.41,5.527-3.434,7.816c-1.121,2.483-2.072,4.358-2.85,5.624c-0.779,1.269-1.338,2.072-1.678,2.411  c-0.146,0.194-0.67,0.56-1.57,1.096c-0.9,0.535-1.984,0.876-3.25,1.022v0.804h15.559v-0.73c-0.633-0.098-1.305-0.207-2.01-0.329  c-0.707-0.121-1.363-0.316-1.971-0.584c-0.611-0.266-1.111-0.609-1.498-1.022c-0.389-0.414-0.584-0.938-0.584-1.571  c0-1.071,0.512-2.922,1.533-5.551c0.682-1.703,1.363-3.397,2.045-5.077s1.391-3.443,2.119-5.296h19.43  c0.73,1.899,1.412,3.726,2.047,5.479c0.633,1.753,1.193,3.348,1.68,4.784s0.863,2.654,1.135,3.652  c0.266,0.999,0.398,1.717,0.398,2.155c0,0.682-0.23,1.242-0.693,1.68c-0.465,0.438-0.998,0.779-1.607,1.023  c-0.607,0.245-1.193,0.413-1.752,0.511s-0.912,0.146-1.059,0.146v0.73h21.33v-0.877c-1.119-0.047-2.094-0.266-2.92-0.657  C1211.93,866.376,1211.236,865.926,1210.678,865.414z M1175.434,846.604c1.168-2.873,2.252-5.539,3.252-7.999  c0.996-2.459,1.91-4.662,2.738-6.61c0.828-1.946,1.523-3.604,2.082-4.967c0.559-1.364,0.984-2.362,1.279-2.995  c0.438,1.071,0.984,2.447,1.643,4.127s1.391,3.532,2.191,5.552c0.805,2.021,1.633,4.127,2.484,6.318s1.691,4.383,2.52,6.574  H1175.434L1175.434,846.604z"/>
</svg>